<svg version="1.1" id="Layer_1" xmlns:x="ns_extend;" xmlns:i="ns_ai;" xmlns:graph="ns_graphs;" xmlns="http://www.w3.org/2000/svg" xmlns:xlink="http://www.w3.org/1999/xlink" x="0px" y="0px" viewBox="0 0 143.9 90.2" style="enable-background:new 0 0 143.9 90.2;" xml:space="preserve">
 <style type="text/css">
  .st0{fill-rule:evenodd;clip-rule:evenodd;fill:#323F45;}
	.st1{fill-rule:evenodd;clip-rule:evenodd;fill:#1C262B;}
 </style>
 <metadata>
  <sfw xmlns="ns_sfw;">
   <slices>
   </slices>
   <sliceSourceBounds bottomLeftOrigin="true" height="90.2" width="143.9" x="100.4" y="-279.9">
   </sliceSourceBounds>
  </sfw>
 </metadata>
 <g>
  <polygon class="st0" points="47.6,63.7 31.9,56.4 68.1,0 110.4,63.5 74.9,40.6 	">
  </polygon>
  <polygon class="st1" points="74.9,40.6 47.6,63.7 44.9,52 69.5,22.3 	">
  </polygon>
  <polygon class="st1" points="110.4,63.5 68.1,0 69.5,22.3 	">
  </polygon>
  <path class="st0" d="M80,71.7h4.3h23.8v4H84.4v3.2h23.2v4H84.4v3.2h23.8v4H84.4H80c-1.3,0-2.4-1.1-2.4-2.4V74.1
		C77.6,72.8,78.7,71.7,80,71.7">
  </path>
  <rect x="33.3" y="71.7" class="st0" width="6.8" height="18.5">
  </rect>
  <path class="st0" d="M45.5,71.7h4.3h23.2v4H49.8v10.4h17.1v-3.2h-8.6v-4h15.5v4v3.2v1.6c0,1.3-1.1,2.4-2.4,2.4H49.8h-4.3L45,90.1
		c-1.1-0.2-1.9-1.2-1.9-2.4V74.1c0-1.2,0.8-2.1,1.9-2.4L45.5,71.7z">
  </path>
  <path class="st0" d="M110.6,71.7h24.3h3.9h0.3c1.3,0,2.3,1,2.3,2.3v6.6c0,1.3-1,2.3-2.3,2.3h-0.3h-0.9l6,7.2h-8.7l-6-7.2h-11.8v7.2
		h-6.8V83v-2v-2h24.3v-3.2h-24.3V71.7z">
  </path>
  <path class="st0" d="M2.4,71.7h4.3h23.8v4H6.8v3.2H30v4H6.8v3.2h23.8v4H6.8H2.4c-1.3,0-2.4-1.1-2.4-2.4V74.1
		C0,72.8,1.1,71.7,2.4,71.7">
  </path>
 </g>
</svg>